{"title":"Yaariyan (2014) Hindi New SCamRip x264 [665 MB] -AshishRocks- {","uid":9464003,"size":696881733,"categoryP":"video","categoryS":"movies","magnet":"?xt=urn:btih:2f1f60e38cf6828fdd1acc91bfec064c289fcf9d&amp;dn=Yaariyan+%282014%29+Hindi+New+SCamRip+x264+%5B665+MB%5D+-AshishRocks-+%7B+&amp;tr=udp%3A%2F%2Ftracker.openbittorrent.com%3A80&amp;tr=udp%3A%2F%2Fopen.demonii.com%3A1337&amp;tr=udp%3A%2F%2Ftracker.coppersurfer.tk%3A6969&amp;tr=udp%3A%2F%2Fexodus.desync.com%3A6969","seeders":1,"leechers":0,"uploader":"ashish.p","files":3,"time":1389412943,"description":"General\n\nComplete name : Yaariyan (2014) Hindi New SCamRip x264 [665 MB] -AshishRocks- { DAKU RG }\nFormat : AVI\nFormat/Info : Audio Video Interleave\nFile size :\t665 MiB\nDuration :\t2h 17mn\nOverall bit rate mode : Variable\nOverall bit rate : 677 Kbps\n\nVideo\n\nID : 0\nFormat : MPEG-4 Visual\nFormat profile : Advanced Simple@L5\nFormat settings, BVOP : 1\nFormat settings, QPel : No\nFormat settings, GMC : No warppoints\nFormat settings, Matrix :\tDefault (H.263)\nMuxing mode :\tPacked bitstream\nCodec ID : XVID\nCodec ID/Hint : XviD\nDuration :\t2h 17mn\nBit rate : 572 Kbps\nWidth : 640 pixels\nHeight : 272 pixels\nDisplay aspect ratio : 2.35:1\nFrame rate : 25.000 fps\nColor space : YUV\nChroma subsampling : 4:2:0\nBit depth : 8 bits\nScan type : Progressive\nCompression mode : Lossy\nBits/(Pixel*Frame) :\t0.131\nStream size : 561 MiB (84%)\nWriting library : XviD 1.2.1 (UTC 2008-12-04)\n\nAudio\n\nID : 1\nFormat : MPEG Audio\nFormat version : Version 1\nFormat profile : Layer 3\nMode : Joint stereo\nMode extension : MS Stereo\nCodec ID : 55\nCodec ID/Hint : MP3\nDuration :\t 2h 17mn\nBit rate mode :\tVariable\nBit rate : 96.0 Kbps\nChannel(s) : 2 channels\nSampling rate : 32.0 KHz\nCompression mode : Lossy\nStream size : 93.8 MiB (14%)\nAlignment : Aligned on interleaves\nInterleave, duration : 36 ms (0.90 video frame)\nInterleave, preload duration : 210 ms\nTitle : VTS_01_1 Tc0 L2 2ch 48 128 DELAY 0ms\nWriting library : LAME3.99r\nEncoding settings : -m j -V 4 -q 2 -lowpass 15.1 --abr 96","torrent":{"xt":"urn:btih:2f1f60e38cf6828fdd1acc91bfec064c289fcf9d","amp;dn":"Yaariyan+%282014%29+Hindi+New+SCamRip+x264+%5B665+MB%5D+-AshishRocks-+%7B+","amp;tr":["udp%3A%2F%2Ftracker.openbittorrent.com%3A80","udp%3A%2F%2Fopen.demonii.com%3A1337","udp%3A%2F%2Ftracker.coppersurfer.tk%3A6969","udp%3A%2F%2Fexodus.desync.com%3A6969"],"infoHash":"2f1f60e38cf6828fdd1acc91bfec064c289fcf9d","infoHashBuffer":{"type":"Buffer","data":[47,31,96,227,140,246,130,143,221,26,204,145,191,236,6,76,40,159,207,157]},"announce":[],"urlList":[]}}